#!OML:ASF X:\für Bonn\!DataBase\2005_08_10_Bjorn_Final\c3d\bjorn.ASF
:FULLY-SPECIFIED
:DEGREES
256
root 4.75211 16.777 -0.255713 189.93 -264.26 -531.908
lowerback 10.8707 2.30933 3.07785
upperback 7.468 3.63504 1.43007
thorax 1.80044 2.03848 -0.562449
lowerneck -14.2088 0.386846 3.50724
upperneck 11.5041 1.2818 -9.51334
head 5.90331 0.0779706 -3.48537
rclavicle -8.34896e-015 7.95139e-016
rhumerus -17.9799 -16.0257 -78.4319
rradius 24.4949
rwrist 6.38587
rhand -14.8517 13.9632
rfingers 7.12502
rthumb 11.3078 -15.7119
lclavicle -8.34896e-015 7.95139e-016
lhumerus -49.3401 -44.2745 95.4681
lradius 45.2059
lwrist -6.51826
lhand -15.8949 -6.4849
lfingers 7.12502
lthumb 10.3016 23.2428
rfemur -34.2415 -5.27913 13.4968
rtibia 74.0876
rfoot -23.4974 28.9822
rtoes 12.0355
lfemur -36.0138 12.7786 -18.9395
ltibia 77.0771
lfoot -26.5266 -0.530472
ltoes -30.2203
257
root 4.78737 16.9487 -0.246965 190.139 -264.237 -531.856
lowerback 10.2981 2.35765 2.97978
upperback 7.28586 3.65388 1.29525
thorax 1.92264 2.03855 -0.625245
lowerneck -13.9201 0.362073 3.47169
upperneck 11.4758 1.23277 -9.35953
head 5.84019 0.0711535 -3.43172
rclavicle 7.95139e-016 1.27222e-014
rhumerus -18.5489 -15.7158 -78.4516
rradius 24.5923
rwrist 6.28492
rhand -14.8611 14.1782
rfingers 7.12502
rthumb 11.2987 -15.4975
lclavicle 7.95139e-016 1.27222e-014
lhumerus -49.7598 -43.9582 95.8934
lradius 44.946
lwrist -6.63068
lhand -15.6496 -6.39748
lfingers 7.12502
lthumb 10.5382 23.3183
rfemur -33.0553 -5.25932 13.5793
rtibia 71.7914
rfoot -23.1909 28.7066
rtoes 11.9537
lfemur -34.8249 12.7299 -18.9595
ltibia 74.7929
lfoot -26.2491 -0.480756
ltoes -29.8058
258
root 4.82047 17.1159 -0.237741 190.865 -264.244 -531.233
lowerback 9.81556 2.39251 2.8463
upperback 7.09725 3.65875 1.13965
thorax 1.98875 2.03067 -0.693419
lowerneck -13.6122 0.330256 3.45439
upperneck 11.4763 1.17383 -9.20945
head 5.78235 0.0598334 -3.38355
rclavicle 3.18055e-015 2.38542e-015
rhumerus -19.1427 -15.4995 -78.4684
rradius 24.6221
rwrist 6.32454
rhand -14.9224 14.4284
rfingers 7.12502
rthumb 11.2396 -15.2505
lclavicle 3.18055e-015 2.38542e-015
lhumerus -50.2064 -43.6876 96.3186
lradius 44.7015
lwrist -6.73664
lhand -15.4048 -6.27565
lfingers 7.12502
lthumb 10.7743 23.428
rfemur -31.8061 -5.3063 13.5912
rtibia 69.4887
rfoot -22.9213 28.4181
rtoes 11.5675
lfemur -33.5858 12.6663 -19.0292
ltibia 72.4928
lfoot -25.922 -0.354713
ltoes -29.6065
259
root 4.85185 17.2792 -0.227856 191.959 -264.252 -530.24
lowerback 9.34783 2.42884 2.66327
upperback 6.90777 3.66498 0.983883
thorax 2.04362 2.02188 -0.734877
lowerneck -13.357 0.297735 3.43691
upperneck 11.5509 1.12145 -9.07239
head 5.75736 0.0482124 -3.34041
rclavicle -2.38542e-015 -7.15625e-015
rhumerus -19.7161 -15.3438 -78.4722
rradius 24.5907
rwrist 6.37573
rhand -14.9294 14.6164
rfingers 7.12502
rthumb 11.2328 -15.0629
lclavicle -2.38542e-015 -7.15625e-015
lhumerus -50.6352 -43.3986 96.7159
lradius 44.468
lwrist -6.86092
lhand -15.1525 -6.23771
lfingers 7.12502
lthumb 11.0177 23.4531
rfemur -30.5656 -5.36632 13.5615
rtibia 67.1775
rfoot -22.5736 28.1359
rtoes 11.0656
lfemur -32.3528 12.6335 -19.1299
ltibia 70.186
lfoot -25.495 -0.337101
ltoes -29.2905
260
root 4.88229 17.4398 -0.218056 192.899 -264.261 -529.42
lowerback 8.84169 2.46657 2.4789
upperback 6.75216 3.67526 0.856406
thorax 2.15407 2.0163 -0.743005
lowerneck -13.1721 0.270352 3.39112
upperneck 11.6379 1.0807 -8.92942
head 5.74904 0.0395227 -3.29036
rclavicle -1.63003e-014 1.66979e-014
rhumerus -20.263 -15.0204 -78.4709
rradius 24.6247
rwrist 6.25607
rhand -14.8918 14.6854
rfingers 7.12502
rthumb 11.2691 -14.9919
lclavicle -1.63003e-014 1.66979e-014
lhumerus -50.9304 -43.1135 97.0597
lradius 44.2129
lwrist -6.99511
lhand -14.8574 -6.23105
lfingers 7.12502
lthumb 11.3023 23.4444
rfemur -29.3595 -5.44733 13.5494
rtibia 64.8731
rfoot -21.8512 27.9198
rtoes 11.1684
lfemur -31.1453 12.6218 -19.2151
ltibia 67.8711
lfoot -25.0053 -0.351567
ltoes -28.9202
261
root 4.91264 17.5958 -0.209125 193.635 -264.271 -528.797
lowerback 8.36015 2.49543 2.32398
upperback 6.58957 3.679 0.736292
thorax 2.24588 2.00826 -0.760839
lowerneck -12.9344 0.257953 3.29665
upperneck 11.6651 1.05849 -8.73813
head 5.71387 0.043223 -3.21398
rclavicle -7.67309e-014 8.74653e-015
rhumerus -20.8137 -14.7357 -78.4613
rradius 24.617
rwrist 6.15686
rhand -14.773 14.6693
rfingers 7.12502
rthumb 11.3836 -15.0017
lclavicle -7.67309e-014 8.74653e-015
lhumerus -51.2605 -42.8016 97.3785
lradius 44.0345
lwrist -7.13545
lhand -14.4704 -6.21271
lfingers 7.12502
lthumb 11.6755 23.442
rfemur -28.1585 -5.56056 13.5537
rtibia 62.5817
rfoot -21.0726 27.7265
rtoes 11.4394
lfemur -29.9371 12.6197 -19.2749
ltibia 65.5625
lfoot -24.478 -0.368939
ltoes -28.5854
262
root 4.94026 17.7449 -0.198955 194.279 -264.306 -528.273
lowerback 7.87653 2.52328 2.16842
upperback 6.42895 3.68366 0.625578
thorax 2.34107 2.00079 -0.768314
lowerneck -12.6768 0.227988 3.19537
upperneck 11.6758 1.00722 -8.51329
head 5.66815 0.0352945 -3.12801
rclavicle 3.95581e-014 1.35174e-014
rhumerus -21.37 -14.5021 -78.4488
rradius 24.6085
rwrist 6.12977
rhand -14.6232 14.5376
rfingers 7.12502
rthumb 11.5282 -15.1254
lclavicle 3.95581e-014 1.35174e-014
lhumerus -51.561 -42.5225 97.6616
lradius 43.866
lwrist -7.24463
lhand -13.9749 -6.23365
lfingers 7.12502
lthumb 12.1533 23.3933
rfemur -26.9965 -5.68174 13.5823
rtibia 60.3325
rfoot -20.213 27.5221
rtoes 11.857
lfemur -28.7638 12.6437 -19.3077
ltibia 63.2784
lfoot -23.9228 -0.496399
ltoes -28.0489
263
root 4.96772 17.8878 -0.188706 194.697 -264.334 -527.976
lowerback 7.39737 2.54289 2.01519
upperback 6.27102 3.67978 0.537555
thorax 2.43576 1.98893 -0.753348
lowerneck -12.3449 0.213916 3.08158
upperneck 11.5681 0.976177 -8.31353
head 5.57445 0.0381718 -3.04443
rclavicle 9.93923e-015 -3.97569e-015
rhumerus -21.9173 -14.2103 -78.4149
rradius 24.5772
rwrist 6.0969
rhand -14.4201 14.384
rfingers 7.12502
rthumb 11.724 -15.268
lclavicle 9.93923e-015 -3.97569e-015
lhumerus -51.8863 -42.2352 97.9462
lradius 43.7697
lwrist -7.30657
lhand -13.432 -6.18321
lfingers 7.12502
lthumb 12.6767 23.4121
rfemur -25.8627 -5.8528 13.6325
rtibia 58.136
rfoot -19.4219 27.2759
rtoes 11.9894
lfemur -27.6169 12.6995 -19.3171
ltibia 61.0372
lfoot -23.3614 -0.632141
ltoes -27.6118
264
root 4.99383 18.0242 -0.179668 194.92 -264.367 -527.856
lowerback 6.95857 2.57134 1.91975
upperback 6.10356 3.69356 0.432061
thorax 2.50448 1.98822 -0.791601
lowerneck -11.8971 0.176893 3.01232
upperneck 11.3439 0.90059 -8.12523
head 5.42257 0.024232 -2.9737
rclavicle 4.01545e-014 -1.90833e-014
rhumerus -22.534 -13.8442 -78.4214
rradius 24.6209
rwrist 5.95887
rhand -14.2527 14.1109
rfingers 7.12502
rthumb 11.8854 -15.5318
lclavicle 4.01545e-014 -1.90833e-014
lhumerus -52.2179 -42.0368 98.224
lradius 43.6719
lwrist -7.32877
lhand -12.7906 -6.16311
lfingers 7.12502
lthumb 13.295 23.3928
rfemur -24.7594 -6.04132 13.6985
rtibia 56.0171
rfoot -18.6638 27.0286
rtoes 12.0714
lfemur -26.4767 12.7877 -19.3028
ltibia 58.8416
lfoot -22.7514 -0.82261
ltoes -26.8576
265
root 5.01868 18.1532 -0.170494 195.188 -264.407 -527.709
lowerback 6.51429 2.58632 1.79905
upperback 5.92039 3.68882 0.34699
thorax 2.55686 1.97658 -0.794257
lowerneck -11.2866 0.147506 2.91603
upperneck 10.94 0.833113 -7.9546
head 5.18856 0.0175544 -2.90071
rclavicle -3.77691e-015 -1.98785e-014
rhumerus -23.136 -13.565 -78.3888
rradius 24.5903
rwrist 5.96643
rhand -14.0061 13.8903
rfingers 7.12502
rthumb 12.1232 -15.7385
lclavicle -3.77691e-015 -1.98785e-014
lhumerus -52.5776 -41.7948 98.5141
lradius 43.6166
lwrist -7.3687
lhand -12.0918 -6.07867
lfingers 7.12502
lthumb 13.9685 23.4321
rfemur -23.7301 -6.25613 13.7617
rtibia 53.9831
rfoot -17.9366 26.7432
rtoes 12.0196
lfemur -25.3984 12.8754 -19.2915
ltibia 56.71
lfoot -22.1439 -1.01084
ltoes -26.257
266
root 5.04224 18.2756 -0.160708 195.458 -264.452 -527.551
lowerback 6.09155 2.60132 1.67778
upperback 5.73616 3.68634 0.258488
thorax 2.5971 1.96637 -0.801353
lowerneck -10.5215 0.118197 2.83543
upperneck 10.3163 0.749314 -7.77779
head 4.86096 0.00933237 -2.82706
rclavicle -1.39149e-014 -1.27222e-014
rhumerus -23.7741 -13.2509 -78.3616
rradius 24.5754
rwrist 5.9528
rhand -13.7751 13.6604
rfingers 7.12502
rthumb 12.346 -15.9551
lclavicle -1.39149e-014 -1.27222e-014
lhumerus -52.9772 -41.6239 98.8045
lradius 43.6179
lwrist -7.35746
lhand -11.3375 -6.05296
lfingers 7.12502
lthumb 14.6953 23.4062
rfemur -22.7491 -6.4719 13.8184
rtibia 52.0426
rfoot -17.1565 26.4817
rtoes 12.0991
lfemur -24.3511 12.9934 -19.268
ltibia 54.6378
lfoot -21.5139 -1.24124
ltoes -25.4214
267
root 5.06568 18.3937 -0.151723 195.691 -264.504 -527.4
lowerback 5.70016 2.60937 1.56652
upperback 5.56409 3.67777 0.172736
thorax 2.63347 1.95411 -0.812203
lowerneck -9.68975 0.0830082 2.74567
upperneck 9.59772 0.654385 -7.59825
head 4.49445 -0.00286199 -2.75146
rclavicle 9.54166e-015 3.18055e-015
rhumerus -24.4092 -12.8568 -78.358
rradius 24.5802
rwrist 5.91752
rhand -13.532 13.4079
rfingers 7.12502
rthumb 12.5803 -16.1933
lclavicle 9.54166e-015 3.18055e-015
lhumerus -53.3592 -41.4631 99.0672
lradius 43.662
lwrist -7.36998
lhand -10.5511 -5.93237
lfingers 7.12502
lthumb 15.4529 23.47
rfemur -21.7715 -6.70318 13.8559
rtibia 50.1811
rfoot -16.3319 26.2712
rtoes 12.3377
lfemur -23.2996 13.1075 -19.2368
ltibia 52.6331
lfoot -20.8769 -1.43344
ltoes -24.7353
